<?xml version="1.0" encoding="UTF-8" standalone="no"?>
<!DOCTYPE svg PUBLIC "-//W3C//DTD SVG 1.1//EN" "http://www.w3.org/Graphics/SVG/1.1/DTD/svg11.dtd">
<svg width="100%" height="100%" viewBox="0 0 26 26" version="1.1" xmlns="http://www.w3.org/2000/svg" xmlns:xlink="http://www.w3.org/1999/xlink" xml:space="preserve" style="fill-rule:evenodd;clip-rule:evenodd;stroke-linecap:round;stroke-linejoin:round;stroke-miterlimit:1.5;">
    <g transform="matrix(1,0,0,1,-811,-175)">
        <g transform="matrix(1,0,0,1,334,-41)">
            <g transform="matrix(1.1,0,0,1.21111,-47.9,-48.4444)">
                <path d="M499,224.5C499,222.016 496.78,220 494.045,220L483.955,220C481.22,220 479,222.016 479,224.5L479,233.5C479,235.984 481.22,238 483.955,238L494.045,238C496.78,238 499,235.984 499,233.5L499,224.5Z" style="fill:none;stroke:rgb(150,150,150);stroke-width:2.16px;"/>
            </g>
            <g transform="matrix(1,0,0,1,7,-28)">
                <g transform="matrix(20,0,0,20,479.68,264.02)">
                    <path d="M0.307,-0L0.031,-0L0.031,-0.039C0.041,-0.044 0.051,-0.049 0.062,-0.053C0.073,-0.056 0.084,-0.06 0.097,-0.063L0.097,-0.429L0.031,-0.437L0.031,-0.476C0.041,-0.48 0.054,-0.484 0.069,-0.488C0.084,-0.492 0.099,-0.496 0.116,-0.499C0.133,-0.501 0.149,-0.504 0.165,-0.507C0.181,-0.509 0.195,-0.511 0.207,-0.512L0.241,-0.512L0.241,-0.063C0.254,-0.06 0.266,-0.056 0.277,-0.053C0.288,-0.049 0.298,-0.044 0.307,-0.039L0.307,-0ZM0.08,-0.664C0.08,-0.687 0.088,-0.706 0.104,-0.719C0.12,-0.732 0.141,-0.739 0.166,-0.739C0.191,-0.739 0.212,-0.732 0.228,-0.719C0.244,-0.706 0.252,-0.687 0.252,-0.664C0.252,-0.641 0.244,-0.623 0.228,-0.61C0.212,-0.597 0.191,-0.59 0.166,-0.59C0.141,-0.59 0.12,-0.597 0.104,-0.61C0.088,-0.623 0.08,-0.641 0.08,-0.664Z" style="fill:rgb(150,150,150);fill-rule:nonzero;"/>
                </g>
            </g>
        </g>
    </g>
</svg>
